<svg xmlns="http://www.w3.org/2000/svg" xmlns:xlink="http://www.w3.org/1999/xlink" id="Calque_1" x="0" y="0" version="1.1" viewBox="0 0 85 85" xml:space="preserve" style="enable-background:new 0 0 85 85"><style type="text/css">.st0{fill:none;stroke:#010101;stroke-width:2.5;stroke-linecap:round;stroke-linejoin:round}</style><g id="Calque_2_4_"><g id="Calque_1-2_3_"><line x1="54.2" x2="66" y1="70.8" y2="70.8" class="st0"/><line x1="19.1" x2="30.8" y1="70.8" y2="70.8" class="st0"/><line x1="34.7" x2="50.3" y1="33.7" y2="33.7" class="st0"/><polygon points="42.5 16.1 42.5 16.1 46.4 22 38.6 22" class="st0"/><line x1="42.5" x2="42.5" y1="16.6" y2="14.2" class="st0"/><polygon points="38.6 53.3 40.6 45.4 44.5 45.4 46.4 53.3" class="st0"/><line x1="28.8" x2="58.2" y1="53.3" y2="53.3" class="st0"/><path d="M30.8,70.8c0.2-6.5,5.6-11.5,12.1-11.3c6.2,0.2,11.1,5.2,11.3,11.3" class="st0"/><path d="M46.4,22C46.3,40.2,53.3,57.7,66,70.9" class="st0"/><path d="M38.6,22c0.1,18.2-6.9,35.7-19.5,48.8" class="st0"/></g></g></svg>