<svg xmlns="http://www.w3.org/2000/svg" xmlns:xlink="http://www.w3.org/1999/xlink" id="Calque_1" x="0" y="0" version="1.1" viewBox="0 0 85 85" xml:space="preserve" style="enable-background:new 0 0 85 85"><style type="text/css">.st0{fill:none;stroke:#010101;stroke-width:2.5;stroke-linecap:round;stroke-linejoin:round}</style><g id="Calque_2_5_"><g id="Calque_1-2_4_"><path d="M47.4,29.8h-9.8c0,0-16.6,16.7-16.6,23.4c0,9.5,9.2,17.6,21.5,17.6S64,62.8,64,53.3 C64,46.5,47.4,29.8,47.4,29.8z" class="st0"/><line x1="32.8" x2="52.3" y1="29.8" y2="29.8" class="st0"/><path d="M37.6,29.8c0,0-12.7-11.3-9.8-14.6c1.9-2.1,8.8,4.9,8.8,4.9s4.1-5.9,5.9-5.9s5.9,5.9,5.9,5.9s7-6.9,8.8-4.9 c2.9,3.3-9.8,14.6-9.8,14.6H37.6z" class="st0"/><path d="M46.9,46.5c-0.1-2.1-1.9-3.8-4.1-3.7c-2.4,0-4.7,1.5-4.7,3.5v8.1c0,2,2.3,3.5,4.7,3.5c1.8,0,4.1-1.2,4.1-3.5" class="st0"/><line x1="37" x2="44" y1="48.7" y2="48.7" class="st0"/><line x1="36.7" x2="44" y1="52.3" y2="52.3" class="st0"/></g></g></svg>