<svg xmlns="http://www.w3.org/2000/svg" xmlns:xlink="http://www.w3.org/1999/xlink" id="Calque_1" x="0" y="0" version="1.1" viewBox="0 0 85 85" xml:space="preserve" style="enable-background:new 0 0 85 85"><style type="text/css">.st0{fill:none;stroke:#000;stroke-width:2.5;stroke-linecap:round;stroke-linejoin:round}</style><g id="Calque_2"><g id="Pen_Holder"><path d="M27.9,41.5h29.3l-2,27.1c-0.1,1.3-1.2,2.3-2.4,2.2H33.2c-1.3,0-2.3-1-2.4-2.2L27.9,41.5z" class="st0"/><line x1="30.8" x2="49.4" y1="65" y2="65" class="st0"/><polyline points="30.8 41.1 29.8 29.8 31.8 22 35.7 29.8 36.9 41.1" class="st0"/><line x1="39.6" x2="45.5" y1="22" y2="22" class="st0"/><polyline points="53.3 41.1 53.3 18.1 49.4 18.1 49.4 41.5" class="st0"/><line x1="49.4" x2="53.3" y1="29.8" y2="29.8" class="st0"/><line x1="51.3" x2="51.3" y1="18.1" y2="14.2" class="st0"/><line x1="31.8" x2="30.8" y1="22" y2="18.1" class="st0"/><path d="M39.6,41.5V17.1c0-1.6,1.3-2.9,2.9-2.9l0,0c1.6,0,2.9,1.3,2.9,2.9v23.5" class="st0"/></g></g></svg>