<svg xmlns="http://www.w3.org/2000/svg" xmlns:xlink="http://www.w3.org/1999/xlink" id="Calque_1" x="0" y="0" version="1.1" viewBox="0 0 85 85" xml:space="preserve" style="enable-background:new 0 0 85 85"><style type="text/css">.st0{fill:none;stroke:#010101;stroke-width:2.5;stroke-linecap:round;stroke-linejoin:round}</style><g id="Calque_2_7_"><g id="Calque_1-2_6_"><polyline points="14.2 41.5 22.3 41.5 32.4 29.4 42.5 55.7 44.6 43.5 46.6 43.5 52.7 29.4 62.8 55.7 66.8 41.5 70.9 41.5" class="st0"/><path d="M68.8,37.5c1.2-2.2,1.9-4.6,2-7.1c0-7.7-6.5-13.1-14.2-13.1c-7.8,0.1-14.1,6.4-14.2,14.2 c-0.1-7.8-6.4-14.1-14.2-14.2c-7.7,0-14.2,5.5-14.2,13.1c-0.2,2.1,0.2,4.2,1,6.1" class="st0"/><polyline points="24.3 47.6 42.5 67.8 56.7 51.6" class="st0"/></g></g></svg>