<svg xmlns="http://www.w3.org/2000/svg" xmlns:xlink="http://www.w3.org/1999/xlink" id="Calque_1" x="0" y="0" version="1.1" viewBox="0 0 85 85" xml:space="preserve" style="enable-background:new 0 0 85 85"><style type="text/css">.st0{fill:none;stroke:#010101;stroke-width:2.5;stroke-linecap:round;stroke-linejoin:round}</style><g id="Calque_2_10_"><g id="Calque_1-2_9_"><rect width="33.2" height="19.5" x="25.9" y="25.9" class="st0"/><path d="M22,63h7.8l0,0v5.2c0,1.4-1.2,2.6-2.6,2.6h-2.6c-1.4,0-2.6-1.2-2.6-2.6L22,63L22,63L22,63z" class="st0"/><path d="M55.2,63H63l0,0v5.2c0,1.4-1.2,2.6-2.6,2.6h-2.6c-1.4,0-2.6-1.2-2.6-2.6L55.2,63C55.2,63,55.2,63,55.2,63z" class="st0"/><polyline points="22 27.9 14.2 27.9 14.2 37.6" class="st0"/><polyline points="63 27.9 70.9 27.9 70.9 37.6" class="st0"/><path d="M63,47.4h2c2.2,0,3.9,1.7,3.9,3.9c0,0,0,0,0,0v7.8c0,2.2-1.7,3.9-3.9,3.9c0,0,0,0,0,0H20 c-2.2,0-3.9-1.7-3.9-3.9l0,0v-7.8c0-2.2,1.7-3.9,3.9-3.9l0,0h2V23.9c0-5.3,4.3-9.7,9.6-9.8c0,0,0,0,0,0h21.8 c5.4,0,9.7,4.4,9.7,9.7c0,0,0,0,0,0L63,47.4z" class="st0"/><line x1="33.7" x2="51.3" y1="53.3" y2="53.3" class="st0"/><line x1="33.7" x2="51.3" y1="57.2" y2="57.2" class="st0"/><circle cx="25.9" cy="55.2" r="3.9" class="st0"/><circle cx="59.1" cy="55.2" r="3.9" class="st0"/><circle cx="31.8" cy="20" r="1" class="st0"/><circle cx="53.3" cy="20" r="1" class="st0"/></g></g></svg>