<svg xmlns="http://www.w3.org/2000/svg" xmlns:xlink="http://www.w3.org/1999/xlink" id="Calque_1" x="0" y="0" version="1.1" viewBox="0 0 85 85" xml:space="preserve" style="enable-background:new 0 0 85 85"><style type="text/css">.st0{fill:none;stroke:#010101;stroke-width:2.5;stroke-linecap:round;stroke-linejoin:round}</style><g id="Calque_2_11_"><g id="Calque_1-2_10_"><rect width="7.8" height="9.8" x="57.2" y="25.9" class="st0"/><rect width="7.8" height="9.8" x="45.5" y="25.9" class="st0"/><rect width="7.8" height="9.8" x="57.2" y="41.5" class="st0"/><rect width="7.8" height="9.8" x="45.5" y="41.5" class="st0"/><rect width="7.8" height="9.8" x="57.2" y="57.2" class="st0"/><rect width="7.8" height="9.8" x="45.5" y="57.2" class="st0"/><rect width="5.9" height="9.8" x="20" y="41.5" class="st0"/><rect width="5.9" height="9.8" x="29.8" y="41.5" class="st0"/><rect width="5.9" height="9.8" x="20" y="57.2" class="st0"/><rect width="5.9" height="9.8" x="29.8" y="57.2" class="st0"/><polygon points="37.6 14.2 37.6 28.8 41.5 27.9 41.5 70.9 70.9 70.9 70.9 24" class="st0"/><polygon points="14.2 70.9 41.5 70.9 41.5 27.9 14.2 38.6" class="st0"/></g></g></svg>